PathFileType	4	(X/Y/Z)	D:\TRACE\v60_Jaco2_6-2-23\BothDRS_Motion1_8-platform.trc
DataRate	CameraRate	NumFrames	NumMarkers	Units	OrigDataRate	OrigDataStartFrame	OrigNumFrames
100.00	100.00	      24	5	mm	100.00	6563	      7500
Frame#	Time	Left_Front			Right_Front			Left_Aft			Right_Aft			Post			
		X1	Y1	Z1	X2	Y2	Z2	X3	Y3	Z3	X4	Y4	Z4	X5	Y5	Z5	

6563	65.620	-760.30188	16.53832	-637.69525	809.93280	17.59267	-642.74225	-668.40137	2.74103	497.33841	774.09479	1.76149	507.21472	26.12733	1319.09204	-945.91815	
6564	65.630	-759.66211	16.64049	-637.22321	810.42584	18.26768	-642.41528	-667.83929	2.50796	497.45239	774.83472	1.32434	507.37503	26.84438	1319.90088	-944.76831	
6565	65.640	-758.61646	16.89892	-637.20679	811.32233	18.89822	-642.10077	-667.34216	2.04769	497.54623	775.30182	0.95852	507.43076	27.37905	1320.29565	-943.94495	
6566	65.650	-757.99817	17.47412	-637.09711	811.86768	19.09935	-642.18024	-666.31421	1.29969	497.80325	775.92474	0.60906	507.56949	28.12083	1321.11621	-942.69141	
6567	65.660	-757.37286	18.03644	-636.87042	812.65765	19.68288	-642.00244	-665.92303	1.47097	497.57626	776.37402	0.32637	507.65512	28.55662	1321.80029	-941.96832	
6568	65.670	-756.88287	18.41767	-636.56470	813.25568	20.21704	-641.77936	-665.44415	1.17072	497.70602	777.22235	-0.05204	507.84290	29.07682	1322.62415	-940.24493	
6569	65.680	-756.48529	19.23205	-636.57782	813.62927	20.74350	-641.77924	-664.84851	0.76229	497.92368	777.71387	-0.33941	507.99521	29.78695	1323.34058	-939.26001	
6570	65.690	-756.11279	19.69942	-636.53278	814.20764	21.15418	-641.81659	-664.23364	0.26919	498.08960	777.96515	-0.63513	507.96558	30.31737	1324.01599	-938.21338	
6571	65.700	-755.51141	20.27987	-636.51270	814.78180	21.67042	-641.62915	-663.83929	0.09127	498.02240	778.78363	-1.05232	508.01517	30.87679	1324.53857	-937.09869	
6572	65.710	-754.67529	20.56839	-636.45032	815.33002	22.36395	-641.38165	-663.33441	-0.26771	498.15228	779.36713	-1.35744	508.20471	31.56655	1325.34375	-936.06952	
6573	65.720	-754.19098	20.93441	-636.32263	815.67426	22.61109	-641.35681	-662.74200	-0.60808	498.35376	779.99268	-1.68287	508.29697	31.80445	1326.01147	-934.82050	
6574	65.730	-753.65100	21.40063	-636.00842	816.17230	22.93539	-641.07025	-662.22687	-1.00214	498.48495	780.36694	-1.99863	508.41364	32.58100	1326.63745	-933.80969	
6575	65.740	-753.31390	22.02258	-635.96893	816.59302	23.61221	-641.01593	-661.28003	-1.93375	498.84152	780.78888	-2.28885	508.56036	32.82433	1327.33276	-933.02136	
6576	65.750	-752.99335	22.31644	-635.81201	816.89502	24.18595	-640.97430	-660.73407	-2.39952	499.03415	781.11902	-2.67320	508.58987	32.86769	1328.03247	-932.07886	
6577	65.760	-752.59833	22.68189	-635.77478	817.17993	24.51741	-640.94678	-660.34338	-2.72056	499.04666	781.35400	-3.11346	508.59827	33.46713	1328.45081	-930.94348	
6578	65.770	-752.30872	23.25772	-635.60706	817.61316	24.83600	-640.85828	-659.90979	-3.19683	499.11359	781.67572	-3.28283	508.69180	33.90605	1329.22607	-930.31012	
6579	65.780	-752.01617	23.84890	-635.54626	818.02808	25.22239	-640.68988	-659.46777	-3.70645	499.26767	782.21765	-3.79438	508.85135	34.08610	1329.70776	-929.19385	
6580	65.790	-751.83966	24.33890	-635.38654	818.39404	25.82779	-640.49438	-659.27417	-3.94843	499.42291	782.42664	-4.02298	508.84866	34.40847	1330.24890	-928.14124	
6581	65.800	-751.64429	24.67095	-635.29633	818.67175	26.20207	-640.44574	-658.86316	-4.35294	499.56424	782.55597	-4.26278	508.92102	34.61908	1331.08398	-927.60687	
6582	65.810	-751.41254	24.85447	-635.24872	818.86591	26.52220	-640.41840	-658.71698	-4.59504	499.71667	782.52545	-4.63975	509.05521	34.69924	1331.68896	-926.29779	
6583	65.820	-751.10370	25.24666	-635.09387	818.99939	26.83046	-640.28113	-658.44702	-5.02638	499.79797	782.93628	-5.00559	509.10699	35.29099	1332.02466	-925.55017	
6584	65.830	-750.82953	25.70065	-634.96796	819.09839	27.14647	-640.17987	-658.15454	-5.47372	499.96140	783.13098	-5.37742	509.16815	35.21019	1332.74341	-924.67853	
6585	65.840	-750.76282	26.05487	-634.72784	819.26038	27.64608	-639.98389	-658.03687	-5.71475	500.04675	783.14087	-5.53599	509.25583	35.44451	1333.38770	-923.56427	
6586	65.850	-750.68402	26.41140	-634.75952	819.41138	28.16853	-639.74542	-659.29846	-3.99804	499.20139	783.19995	-5.65725	509.31418	35.40001	1333.82532	-922.88788	
